# AST/ASF file generated using VICON BodyLanguage
# -----------------------------------------------
:version 1.10
:name VICON
:units
  mass 1.0
  length 0.45
  angle deg
:documentation
   .ast/.asf automatically generated from VICON data using
   VICON BodyBuilder and BodyLanguage model FoxedUp or BRILLIANT.MOD
:root
   order TX TY TZ RX RY RZ
   axis XYZ
   position 0 0 0  
   orientation 0 0 0 
:bonedata
  begin
     id 1 
     name lhipjoint
     direction 0.627457 -0.725269 0.283342 
     length 2.53237 
     axis 0 0 0  XYZ
  end
  begin
     id 2 
     name lfemur
     direction 0.34202 -0.939693 0  
     length 7.32496  
     axis 0 0 20  XYZ
    dof rx ry rz
    limits (-160.0 20.0)
           (-70.0 70.0)
           (-60.0 70.0)
  end
  begin
     id 3 
     name ltibia
     direction 0.34202 -0.939693 0   
     length 7.69674   
     axis 0 0 20   XYZ
    dof rx
    limits (-10.0 170.0)
  end
  begin
     id 4 
     name lfoot
     direction 0.127289 -0.349722 0.928166   
     length 1.8612   
     axis -90 7.62852e-016 20   XYZ
    dof rx rz
    limits (-45.0 90.0)
           (-70.0 20.0)
  end
  begin
     id 5 
     name ltoes
     direction 1.53561e-011 -4.21864e-011 1   
     length 0.925608   
     axis -90 7.62852e-016 20   XYZ
    dof rx
    limits (-90.0 20.0)
  end
  begin
     id 6 
     name rhipjoint
     direction -0.609094 -0.738725 0.288599   
     length 2.48624  
     axis 0 0 0  XYZ 
  end
  begin
     id 7 
     name rfemur
     direction -0.34202 -0.939693 0   
     length 7.44259   
     axis 0 0 -20   XYZ
    dof rx ry rz
    limits (-160.0 20.0)
           (-70.0 70.0)
           (-70.0 60.0)
  end
  begin
     id 8 
     name rtibia
     direction -0.34202 -0.939693 0   
     length 7.7781   
     axis 0 0 -20   XYZ
    dof rx
    limits (-10.0 170.0)
 end
 begin
     id 9 
     name rfoot
     direction -0.107015 -0.294021 0.949789   
     length 2.14741  
     axis -90 -7.62852e-016 -20   XYZ
    dof rx rz
    limits (-45.0 90.0)
           (-20.0 70.0)
  end
  begin
     id 10 
     name rtoes
     direction -1.53497e-011 -4.21924e-011 1   
     length 1.0706   
     axis -90 -7.62852e-016 -20   XYZ
    dof rx
    limits (-90.0 20.0)
  end
  begin
     id 11 
     name lowerback
     direction -0.0142066 0.998112 -0.0597545   
     length 1.86627   
     axis 0 0 0   XYZ
    dof rx ry rz
    limits (-20.0 45.0)
           (-30.0 30.0)
           (-30.0 30.0)
  end
  begin
     id 12 
     name upperback
     direction 0.00547294 0.999744 0.0219437   
     length 1.86272   
     axis 0 0 0   XYZ
    dof rx ry rz
    limits (-20.0 45.0)
           (-30.0 30.0)
           (-30.0 30.0)
  end
  begin
     id 13 
     name thorax
     direction 0.0116162 0.998704 0.0495538   
     length 1.8703   
     axis 0 0 0   XYZ
    dof rx ry rz
    limits (-20.0 45.0)
           (-30.0 30.0)
           (-30.0 30.0)
  end
  begin
     id 14 
     name lowerneck
     direction -0.0106574 0.998739 0.0490586   
     length 1.8074   
     axis 0 0 0   XYZ
    dof rx ry rz
    limits (-20.0 45.0)
           (-30.0 30.0)
           (-30.0 30.0)
  end
  begin
     id 15 
     name upperneck
     direction 0.030527 0.976587 -0.212944   
     length 1.80681   
     axis 0 0 0   XYZ
    dof rx ry rz
    limits (-20.0 45.0)
           (-30.0 30.0)
           (-30.0 30.0)
  end
  begin
     id 16
     name head
     direction 0.00869225 0.997035 -0.0764531  
     length 1.8313  
     axis 0 0 0   XYZ
    dof rx ry rz
    limits (-20.0 45.0)
           (-30.0 30.0)
           (-30.0 30.0)
  end
  begin
     id 17 
     name lclavicle
     direction 0.915958 0.399447 0.0382386  
     length 3.78965  
     axis 0 0 0   XYZ
    dof ry rz
    limits (-20.0 10.0)
           (0.0 20.0)
  end
  begin
     id 18 
     name lhumerus
     direction 1 -4.48967e-011 3.19303e-027   
     length 4.78095   
     axis -180 -30 -90   XYZ
    dof rx ry rz
    limits (-60.0 90.0)
           (-90.0 90.0)
           (-90.0 90.0)
  end
  begin
     id 19
     name lradius
     direction 1 -4.48967e-011 -3.77974e-027   
     length 3.58615   
     axis -180 -30 -90   XYZ
    dof rx
    limits (-10.0 170.0)
  end
  begin
     id 20
     name lwrist
     direction 1 -4.48927e-011 1.2807e-027   
     length 1.79307   
     axis 1.91374e-015 90 90   XYZ
    dof ry
    limits (-180.0 0.0)
 end
  begin
     id 21 
     name lhand
     direction 1 -4.49036e-011 2.5614e-027   
     length 0.659812   
     axis -1.63439e-015 90 90   XYZ
    dof rx rz
    limits (-90.0 90.0)
           (-45.0 45.0)
  end
  begin
     id 22 
     name lfingers
     direction 1 -4.49052e-011 5.1228e-027   
     length 0.531957   
     axis -3.26879e-015 90 90   XYZ
    dof rx
    limits (0.0 90.0)
  end
  begin
     id 23
     name lthumb
     direction 0.707107 -6.35012e-011 0.707107   
     length 0.763787   
     axis -90 45 2.85299e-015   XYZ
    dof rx rz
    limits (-45.0 45.0)
           (-45.0 45.0)
  end
  begin
     id 24 
     name rclavicle
     direction -0.895351 0.435135 0.0948887   
     length 3.70497  
     axis 0 0 0   XYZ 
    dof ry rz
    limits (-10.0 20.0)
           (-20.0 0.0)
  end
  begin
     id 25 
     name rhumerus
     direction -1 -4.48971e-011 2.38946e-027  
     length 4.48913   
     axis -180 30 90   XYZ
    dof rx ry rz
    limits (-90.0 60.0)
           (-90.0 90.0)
           (-90.0 90.0)
  end
  begin
     id 26 
     name rradius
     direction -1 -4.4895e-011 4.38668e-027   
     length 3.7051   
     axis -180 30 90   XYZ
    dof rx
    limits (-10.0 170.0)
  end
  begin
     id 27 
     name rwrist
     direction -1 -4.49007e-011 1.2807e-027   
     length 1.85255   
     axis 1.91374e-015 -90 -90   XYZ
    dof ry
    limits (-180.0 0.0)
  end
  begin
     id 28
     name rhand
     direction -1 -4.48851e-011 2.5614e-027   
     length 0.449136   
     axis -1.63439e-015 -90 -90   XYZ
    dof rx rz
    limits (-90.0 90.0)
           (-45.0 45.0)
  end
  begin
     id 29
     name rfingers
     direction -1 -4.49128e-011 5.1228e-027   
     length 0.362105   
     axis -3.26879e-015 -90 -90   XYZ
    dof rx
    limits (0.0 90.0)
  end
  begin
     id 30
     name rthumb
     direction -0.707107 -6.34851e-011 0.707107   
     length 0.519912   
     axis -90 -45 -2.85299e-015   XYZ
    dof rx rz
    limits (-45.0 45.0)
           (-45.0 45.0)
  end
:hierarchy
  begin
    root lhipjoint rhipjoint lowerback
    lhipjoint lfemur
    lfemur ltibia
    ltibia lfoot
    lfoot ltoes
    rhipjoint rfemur
    rfemur rtibia
    rtibia rfoot
    rfoot rtoes
    lowerback upperback
    upperback thorax
    thorax lowerneck lclavicle rclavicle
    lowerneck upperneck
    upperneck head
    lclavicle lhumerus
    lhumerus lradius
    lradius lwrist
    lwrist lhand lthumb
    lhand lfingers
    rclavicle rhumerus
    rhumerus rradius
    rradius rwrist
    rwrist rhand rthumb
    rhand rfingers
  end

#!OML:ASF I:\Actors\actors\Patient Classification 2\Patient 1\Session 1\actor1.ASF
:FULLY-SPECIFIED
:DEGREES
51
root -0.713394 18.6921 5.62114 0.905173 -2.78628 -1.99609
lowerback 2.54766 0.473612 -1.87955
upperback -2.06854 0.570027 0.489188
thorax -3.58101 0.337882 1.52543
lowerneck -14.0811 -0.601438 0.726969
upperneck 26.0371 -1.48295 1.52223
head 10.6995 -0.427403 0.224681
rclavicle -1.88845e-015 1.59028e-015
rhumerus -51.4483 -3.77285 -83.9083
rradius 45.2102
rwrist 17.0868
rhand -1.51939 -37.6858
rfingers 7.12502
rthumb 24.1343 -66.1877
lclavicle -1.88845e-015 1.59028e-015
lhumerus -43.5779 8.07513 84.9128
lradius 39.0852
lwrist -13.0977
lhand -8.35342 -25.3604
lfingers 7.12502
lthumb 17.5688 3.8658
rfemur 0 0 0
rtibia 0
rfoot 0 0
rtoes 0
lfemur -4.21136 -6.65515 -12.6095
ltibia 21.4436
lfoot -23.2616 14.0335
ltoes -54.3511
52
root -0.713811 18.6918 5.62297 0.893919 -2.79894 -1.99276
lowerback 2.5027 0.479787 -1.89912
upperback -2.03637 0.578862 0.49964
thorax -3.52302 0.34208 1.54713
lowerneck -14.0674 -0.598419 0.692561
upperneck 25.9857 -1.47773 1.55654
head 10.6783 -0.424806 0.243511
rclavicle -8.24956e-015 2.78299e-015
rhumerus -51.4422 -3.72422 -83.8963
rradius 45.2387
rwrist 17.0314
rhand -1.43607 -37.784
rfingers 7.12502
rthumb 24.2142 -66.2753
lclavicle -8.24956e-015 2.78299e-015
lhumerus -43.5549 8.01412 84.9332
lradius 39.1341
lwrist -13.0309
lhand -8.24544 -25.2469
lfingers 7.12502
lthumb 17.6727 3.96993
rfemur 0 0 0
rtibia 0
rfoot 0 0
rtoes 0
lfemur -4.19852 -6.61099 -12.6107
ltibia 21.4526
lfoot -23.2554 13.9935
ltoes -54.3506
53
root -0.713483 18.6918 5.62407 0.895105 -2.78341 -1.97933
lowerback 2.44878 0.475695 -1.9426
upperback -2.00425 0.573561 0.520772
thorax -3.45985 0.339893 1.59409
lowerneck -14.0733 -0.58878 0.692483
upperneck 25.9481 -1.45733 1.53576
head 10.6652 -0.418269 0.238706
rclavicle 1.96176e-014 -6.75868e-015
rhumerus -51.4393 -3.70062 -83.8624
rradius 45.3059
rwrist 17.0218
rhand -1.42199 -37.8933
rfingers 7.12502
rthumb 24.2277 -66.3828
lclavicle 1.96176e-014 -6.75868e-015
lhumerus -43.5137 7.98021 84.9742
lradius 39.1374
lwrist -13
lhand -8.23954 -25.2648
lfingers 7.12502
lthumb 17.6783 3.95158
rfemur 0 0 0
rtibia 0
rfoot 0 0
rtoes 0
lfemur -4.2004 -6.58802 -12.6231
ltibia 21.4551
lfoot -23.2414 13.9599
ltoes -54.3515
54
root -0.713822 18.692 5.62436 0.909004 -2.76583 -1.98499
lowerback 2.42509 0.472306 -1.95698
upperback -1.99638 0.569604 0.540618
thorax -3.43855 0.338252 1.62302
lowerneck -14.0845 -0.587401 0.689713
upperneck 25.9287 -1.4542 1.53531
head 10.6602 -0.417249 0.239373
rclavicle 1.32937e-015 -1.03368e-014
rhumerus -51.4388 -3.7179 -83.8238
rradius 45.3431
rwrist 17.0584
rhand -1.3976 -37.9035
rfingers 7.12502
rthumb 24.2511 -66.3899
lclavicle 1.32937e-015 -1.03368e-014
lhumerus -43.4574 8.0239 84.9759
lradius 39.0692
lwrist -13.044
lhand -8.26556 -25.3544
lfingers 7.12502
lthumb 17.6533 3.86421
rfemur 0 0 0
rtibia 0
rfoot 0 0
rtoes 0
lfemur -4.21612 -6.58777 -12.6143
ltibia 21.4509
lfoot -23.1871 13.997
ltoes -54.4624
55
root -0.713839 18.692 5.62484 0.906849 -2.75876 -1.96943
lowerback 2.43343 0.468773 -1.96487
upperback -1.99697 0.564136 0.532096
thorax -3.44364 0.335664 1.61891
lowerneck -14.1103 -0.587975 0.696025
upperneck 25.95 -1.46764 1.57136
head 10.6737 -0.418069 0.249392
rclavicle -6.21202e-016 -7.95139e-016
rhumerus -51.4285 -3.72772 -83.8287
rradius 45.3338
rwrist 17.0651
rhand -2.06019 -37.5968
rfingers 7.12502
rthumb 23.6157 -66.1666
lclavicle -6.21202e-016 -7.95139e-016
lhumerus -43.4564 8.02772 84.9523
lradius 39.0605
lwrist -13.0467
lhand -8.33251 -25.3263
lfingers 7.12502
lthumb 17.5889 3.8981
rfemur 0 0 0
rtibia 0
rfoot 0 0
rtoes 0
lfemur -4.21749 -6.56772 -12.6304
ltibia 21.4488
lfoot -23.1218 14.0108
ltoes -54.5807
